<svg width="66" height="66" viewBox="0 0 66 66" fill="none" xmlns="http://www.w3.org/2000/svg">
<ellipse cx="32.7364" cy="32.9195" rx="32.4652" ry="32.46" fill="#F1F1F1"/>
<path fill-rule="evenodd" clip-rule="evenodd" d="M29.9774 29.5868H34.6565V31.9171C35.3305 30.5769 37.059 29.3727 39.6555 29.3727C44.6332 29.3727 45.8149 32.0406 45.8149 36.9356V46.0012H40.7755V38.0504C40.7755 35.2628 40.1015 33.6907 38.3856 33.6907C36.0058 33.6907 35.0168 35.3849 35.0168 38.0491V46.0012H29.9774V29.5868ZM21.3362 45.7871H26.3755V29.3727H21.3362V45.7871ZM27.0974 24.0204C27.0976 24.4428 27.0138 24.8609 26.851 25.2506C26.6881 25.6403 26.4494 25.9937 26.1487 26.2903C25.5395 26.8957 24.7148 27.2346 23.8558 27.2325C22.9984 27.232 22.1756 26.8939 21.5654 26.2916C21.2659 25.9939 21.028 25.6401 20.8654 25.2504C20.7028 24.8607 20.6188 24.4427 20.618 24.0204C20.618 23.1677 20.9582 22.3514 21.5667 21.7493C22.1763 21.1461 22.9994 20.808 23.8571 20.8083C24.7163 20.8083 25.5402 21.1472 26.1487 21.7493C26.756 22.3514 27.0974 23.1677 27.0974 24.0204Z" fill="black"/>
</svg>
