<svg width="66" height="66" viewBox="0 0 66 66" fill="none" xmlns="http://www.w3.org/2000/svg">
<ellipse cx="32.7034" cy="32.96" rx="32.4652" ry="32.46" fill="#F1F1F1"/>
<path d="M46.3761 24.3952C45.3923 24.831 44.3355 25.1255 43.2245 25.2586C44.3709 24.5728 45.2285 23.4934 45.6374 22.2218C44.5604 22.8614 43.3816 23.3116 42.1523 23.5529C41.3257 22.6704 40.2308 22.0855 39.0376 21.8889C37.8444 21.6924 36.6197 21.8952 35.5536 22.4659C34.4875 23.0366 33.6397 23.9432 33.1418 25.0451C32.6438 26.1469 32.5237 27.3823 32.7999 28.5594C30.6175 28.4498 28.4826 27.8827 26.5336 26.8948C24.5847 25.9068 22.8653 24.5202 21.487 22.8249C21.0157 23.6377 20.7447 24.5801 20.7447 25.5838C20.7442 26.4873 20.9667 27.377 21.3926 28.1739C21.8184 28.9708 22.4344 29.6503 23.1859 30.1521C22.3144 30.1243 21.4621 29.8889 20.7 29.4653V29.536C20.6999 30.8032 21.1383 32.0314 21.9408 33.0122C22.7433 33.9931 23.8605 34.6661 25.1028 34.9171C24.2943 35.1358 23.4467 35.1681 22.6239 35.0113C22.9744 36.1017 23.6572 37.0552 24.5766 37.7383C25.496 38.4214 26.6061 38.8 27.7514 38.8209C25.8072 40.3469 23.4061 41.1747 20.9344 41.1711C20.4966 41.1712 20.0591 41.1456 19.6243 41.0945C22.1332 42.7074 25.0537 43.5634 28.0365 43.56C38.1335 43.56 43.6533 35.1986 43.6533 27.9468C43.6533 27.7112 43.6474 27.4733 43.6368 27.2377C44.7105 26.4613 45.6373 25.5 46.3738 24.3987L46.3761 24.3952Z" fill="black"/>
</svg>
